<svg width="300" height="60" viewBox="0 0 300 60" fill="none" xmlns="http://www.w3.org/2000/svg">
<g clip-path="url(#clip0_2518_456)">
<path d="M18.0891 25.2125L29.7413 13.5609L41.3997 25.2187L48.1797 18.4387L29.7413 0L11.3091 18.4325L18.0891 25.2125Z" fill="white" fill-opacity="0.5"/>
<path d="M13.3009 29.9986L6.521 23.2188L-0.259277 29.9989L6.52066 36.7788L13.3009 29.9986Z" fill="white" fill-opacity="0.5"/>
<path d="M18.0893 34.7879L29.7415 46.4395L41.3994 34.7822L48.1833 41.5584L48.1799 41.5622L29.7415 60.0004L11.3088 41.5684L11.2993 41.5589L18.0893 34.7879Z" fill="white" fill-opacity="0.5"/>
<path d="M52.9624 36.7822L59.7427 30.002L52.9627 23.2221L46.1825 30.0023L52.9624 36.7822Z" fill="white" fill-opacity="0.5"/>
<path d="M36.6185 29.9962H36.6213L29.7413 23.1162L24.6568 28.2006H24.6564L24.0725 28.7849L22.8674 29.99L22.8579 29.9995L22.8674 30.0095L29.7413 36.8833L36.6213 30.0033L36.6246 29.9995L36.6185 29.9962Z" fill="white" fill-opacity="0.5"/>
<path d="M70.312 14.5381H85.0583C88.7182 14.5381 91.4858 15.4773 93.3615 17.3559C94.813 18.8107 95.5385 20.6139 95.5385 22.7649V22.8558C95.5385 23.7648 95.4262 24.568 95.2002 25.2646C94.9746 25.9622 94.6732 26.5901 94.2965 27.1507C93.9207 27.7118 93.4837 28.2042 92.9871 28.6279C92.49 29.0525 91.9559 29.4164 91.3839 29.7188C93.2236 30.4163 94.6718 31.3627 95.7276 32.5597C96.783 33.7573 97.3114 35.4164 97.3114 37.537V37.6275C97.3114 39.0824 97.0318 40.3548 96.4721 41.4462C95.9124 42.5366 95.1106 43.446 94.0666 44.1734C93.0226 44.9008 91.7673 45.4458 90.3001 45.8098C88.8329 46.1733 87.2069 46.3548 85.4227 46.3548H70.312V14.5381ZM83.584 27.4009C85.1299 27.4009 86.3572 27.1365 87.2657 26.6058C88.1746 26.0755 88.6291 25.2191 88.6291 24.0377V23.9467C88.6291 22.8866 88.2348 22.0763 87.4472 21.5152C86.6591 20.9546 85.5227 20.674 84.0385 20.674H77.1295V27.4009H83.584ZM85.4478 40.2193C86.9932 40.2193 88.2045 39.9397 89.084 39.3786C89.9627 38.818 90.4024 37.9465 90.4024 36.7646V36.6741C90.4024 35.6135 89.993 34.7728 89.175 34.1511C88.3566 33.5307 87.0387 33.2199 85.2204 33.2199H77.1295V40.2197L85.4478 40.2193Z" fill="white" fill-opacity="0.5"/>
<path d="M106.094 14.5381H113.094V46.3557H106.094V14.5381Z" fill="white" fill-opacity="0.5"/>
<path d="M123.697 14.5381H130.15L145.06 34.1288V14.5381H151.969V46.3557H146.015L130.605 26.129V46.3557H123.697V14.5381Z" fill="white" fill-opacity="0.5"/>
<path d="M173.161 14.3115H179.615L193.252 46.3561H185.934L183.025 39.2203H169.57L166.661 46.3561H159.524L173.161 14.3115ZM180.525 33.0379L176.297 22.7203L172.071 33.0379H180.525Z" fill="white" fill-opacity="0.5"/>
<path d="M200.809 14.5381H207.264L222.172 34.1288V14.5381H229.081V46.3557H223.127L207.718 26.129V46.3557H200.809V14.5381Z" fill="white" fill-opacity="0.5"/>
<path d="M254.273 46.9012C251.939 46.9012 249.773 46.4766 247.773 45.6288C245.773 44.781 244.046 43.6214 242.591 42.1514C241.136 40.6818 239.999 38.9469 239.182 36.9471C238.364 34.9468 237.955 32.8105 237.955 30.5377V30.4472C237.955 28.1744 238.364 26.0461 239.182 24.061C240 22.0763 241.136 20.3338 242.591 18.834C244.045 17.3341 245.788 16.1517 247.818 15.2883C249.848 14.4249 252.091 13.9932 254.546 13.9932C256.03 13.9932 257.385 14.115 258.613 14.3566C259.84 14.5997 260.953 14.9324 261.954 15.3566C262.955 15.7812 263.878 16.2963 264.727 16.9019C265.574 17.5085 266.363 18.1748 267.09 18.9022L262.637 24.0383C261.393 22.9175 260.128 22.038 258.841 21.402C257.552 20.766 256.106 20.4476 254.5 20.4476C253.166 20.4476 251.931 20.7054 250.796 21.2205C249.659 21.7356 248.682 22.4474 247.863 23.3563C247.046 24.2653 246.409 25.3187 245.954 26.5153C245.5 27.7128 245.273 28.9928 245.273 30.3562V30.4467C245.273 31.8101 245.5 33.0986 245.954 34.3099C246.409 35.5226 247.037 36.5827 247.841 37.4916C248.643 38.4005 249.613 39.1208 250.749 39.6511C251.887 40.1819 253.136 40.4463 254.5 40.4463C256.319 40.4463 257.855 40.1132 259.113 39.4464C260.37 38.7806 261.621 37.8712 262.863 36.7192L267.318 41.2192C266.499 42.0983 265.65 42.8864 264.772 43.5825C263.893 44.2801 262.931 44.8782 261.885 45.3786C260.841 45.8781 259.696 46.2577 258.454 46.5145C257.211 46.7718 255.818 46.9012 254.273 46.9012Z" fill="white" fill-opacity="0.5"/>
<path d="M275.556 14.5381H299.51V20.7655H282.465V27.2199H297.465V33.4469H282.465V40.1288H299.738V46.3557H275.556V14.5381Z" fill="white" fill-opacity="0.5"/>
</g>
<defs>
<clipPath id="clip0_2518_456">
<rect width="299.51" height="60" fill="white"/>
</clipPath>
</defs>
</svg>
