<svg width="192" height="47" viewBox="0 0 192 47" fill="none" xmlns="http://www.w3.org/2000/svg">
<g clip-path="url(#clip0_2518_469)">
<path d="M54.4356 27.0429C54.4328 27.2063 54.3639 27.3619 54.2439 27.4758C54.124 27.5897 53.9628 27.6526 53.7956 27.6508H42.0089C42.3111 30.4993 44.4978 33.1046 47.5911 33.1046C49.7067 33.1046 51.2711 32.323 52.4445 30.673C52.4991 30.5863 52.5747 30.514 52.6646 30.4625C52.7544 30.411 52.8559 30.3819 52.96 30.3777C53.0376 30.3755 53.1149 30.3889 53.1871 30.4169C53.2593 30.445 53.3248 30.4871 53.3798 30.5408C53.4347 30.5944 53.4778 30.6585 53.5065 30.729C53.5352 30.7995 53.5489 30.875 53.5467 30.9509C53.5471 31.0556 53.5162 31.1583 53.4578 31.2461C52.2667 33.2609 49.9022 34.2509 47.5911 34.2509C43.6267 34.2509 40.7822 30.7772 40.7822 27.0776C40.7822 23.3781 43.6089 19.9043 47.5911 19.9043C51.5733 19.9043 54.4178 23.3433 54.4356 27.0429ZM53.1733 26.5044C52.9245 23.656 50.6845 21.0506 47.5911 21.0506C44.4978 21.0506 42.3111 23.656 42.0089 26.5044H53.1733Z" fill="white" fill-opacity="0.5"/>
<path d="M68.7645 20.1825C68.9187 20.1869 69.0653 20.2487 69.1744 20.3552C69.2834 20.4618 69.3467 20.6051 69.3511 20.7557C69.3534 20.8316 69.3397 20.907 69.311 20.9776C69.2823 21.0481 69.2392 21.1121 69.1842 21.1658C69.1293 21.2195 69.0638 21.2616 68.9916 21.2896C68.9194 21.3177 68.8421 21.331 68.7645 21.3289H65.6V33.4697C65.5986 33.6213 65.5364 33.7663 65.4267 33.8735C65.3169 33.9806 65.1685 34.0415 65.0134 34.0428C64.8592 34.0385 64.7126 33.9767 64.6035 33.8701C64.4944 33.7636 64.4312 33.6203 64.4267 33.4697V21.3289H61.3867C61.3091 21.331 61.2318 21.3177 61.1596 21.2896C61.0874 21.2616 61.0219 21.2195 60.967 21.1658C60.912 21.1121 60.8689 21.0481 60.8402 20.9776C60.8115 20.907 60.7978 20.8316 60.8 20.7557C60.8014 20.6041 60.8637 20.4591 60.9734 20.3519C61.0831 20.2447 61.2315 20.1839 61.3867 20.1825H64.4267V15.7535C64.427 15.6067 64.4809 15.4649 64.5786 15.3534C64.6764 15.242 64.8116 15.1683 64.96 15.1456C65.043 15.1348 65.1273 15.1417 65.2073 15.1657C65.2873 15.1897 65.3611 15.2303 65.4235 15.2847C65.486 15.3391 65.5357 15.4061 65.5692 15.481C65.6027 15.5559 65.6193 15.637 65.6178 15.7187V20.1825H68.7645Z" fill="white" fill-opacity="0.5"/>
<path d="M88.0534 26.0534V33.4004C88.0489 33.551 87.9857 33.6943 87.8766 33.8008C87.7675 33.9074 87.6209 33.9692 87.4667 33.9736C87.3891 33.9757 87.3118 33.9624 87.2396 33.9343C87.1675 33.9063 87.1019 33.8641 87.047 33.8105C86.9921 33.7568 86.9489 33.6928 86.9202 33.6223C86.8915 33.5517 86.8779 33.4762 86.8801 33.4004V26.0534C86.8801 23.5696 85.4401 21.1033 82.6134 21.1033C78.9867 21.1033 77.4223 24.1949 77.6356 27.3734C77.6356 27.4603 77.6712 27.825 77.6712 27.8771V33.383C77.6709 33.5298 77.617 33.6716 77.5192 33.7831C77.4215 33.8945 77.2863 33.9682 77.1378 33.9909C77.0549 34.0017 76.9705 33.9948 76.8905 33.9708C76.8106 33.9468 76.7368 33.9062 76.6744 33.8518C76.6119 33.7974 76.5622 33.7304 76.5287 33.6555C76.4952 33.5806 76.4786 33.4995 76.4801 33.4178V9.25774C76.4815 9.10615 76.5437 8.96115 76.6534 8.85395C76.7632 8.74675 76.9116 8.68593 77.0667 8.68457C77.2209 8.68894 77.3676 8.75073 77.4766 8.85729C77.5857 8.96385 77.6489 9.10711 77.6534 9.25774V22.9096C78.6667 21.138 80.4801 19.9396 82.5956 19.9396C86.0801 19.9396 88.0534 22.9096 88.0534 26.0534Z" fill="white" fill-opacity="0.5"/>
<path d="M109.227 27.0429C109.224 27.2063 109.155 27.3619 109.035 27.4758C108.915 27.5897 108.754 27.6526 108.587 27.6508H96.7999C97.1021 30.4993 99.2888 33.1046 102.382 33.1046C104.498 33.1046 106.062 32.323 107.235 30.673C107.29 30.5863 107.366 30.514 107.456 30.4625C107.545 30.411 107.647 30.3819 107.751 30.3777C107.829 30.3755 107.906 30.3889 107.978 30.4169C108.05 30.445 108.116 30.4871 108.171 30.5408C108.226 30.5944 108.269 30.6585 108.298 30.729C108.326 30.7995 108.34 30.875 108.338 30.9509C108.338 31.0556 108.307 31.1583 108.249 31.2461C107.058 33.2609 104.693 34.2509 102.382 34.2509C98.4177 34.2509 95.5732 30.7772 95.5732 27.0776C95.5732 23.3781 98.3999 19.9043 102.382 19.9043C106.329 19.9043 109.209 23.3433 109.227 27.0429ZM107.947 26.5044C107.698 23.656 105.458 21.0506 102.364 21.0506C99.271 21.0506 97.0844 23.656 96.7821 26.5044H107.947Z" fill="white" fill-opacity="0.5"/>
<path d="M123.715 20.7211C123.727 20.8753 123.675 21.0276 123.572 21.1447C123.468 21.2619 123.322 21.3343 123.164 21.3463C119.698 21.85 118.133 24.6117 118.133 27.8249V33.3308C118.133 33.4776 118.079 33.6194 117.981 33.7308C117.883 33.8423 117.748 33.916 117.6 33.9387C117.517 33.9495 117.432 33.9426 117.352 33.9186C117.272 33.8946 117.199 33.854 117.136 33.7996C117.074 33.7451 117.024 33.6782 116.991 33.6033C116.957 33.5284 116.94 33.4473 116.942 33.3655V20.8079C116.942 20.6611 116.996 20.5193 117.094 20.4079C117.192 20.2964 117.327 20.2227 117.475 20.2C117.558 20.1892 117.643 20.1961 117.723 20.2201C117.803 20.2441 117.876 20.2847 117.939 20.3391C118.001 20.3936 118.051 20.4605 118.084 20.5354C118.118 20.6103 118.135 20.6914 118.133 20.7732V23.3264C119.111 21.7111 121.049 20.1826 123.075 20.1826C123.378 20.1826 123.715 20.391 123.715 20.7211Z" fill="white" fill-opacity="0.5"/>
<path d="M143.093 27.0429C143.09 27.2063 143.022 27.3619 142.902 27.4758C142.782 27.5897 142.621 27.6526 142.453 27.6508H130.667C130.969 30.4993 133.156 33.1046 136.249 33.1046C138.364 33.1046 139.929 32.323 141.102 30.673C141.157 30.5863 141.232 30.514 141.322 30.4625C141.412 30.411 141.514 30.3819 141.618 30.3777C141.695 30.3755 141.773 30.3889 141.845 30.4169C141.917 30.445 141.983 30.4871 142.037 30.5408C142.092 30.5944 142.136 30.6585 142.164 30.729C142.193 30.7995 142.207 30.875 142.204 30.9509C142.205 31.0556 142.174 31.1583 142.116 31.2461C140.924 33.2609 138.56 34.2509 136.249 34.2509C132.284 34.2509 129.44 30.7772 129.44 27.0776C129.44 23.3781 132.267 19.9043 136.249 19.9043C140.231 19.9043 143.076 23.3433 143.093 27.0429ZM141.831 26.5044C141.582 23.656 139.342 21.0506 136.249 21.0506C133.156 21.0506 130.969 23.656 130.667 26.5044H141.831Z" fill="white" fill-opacity="0.5"/>
<path d="M162.151 20.8595V33.4693C162.146 33.6199 162.083 33.7632 161.974 33.8697C161.865 33.9763 161.718 34.0381 161.564 34.0425C161.487 34.0446 161.409 34.0313 161.337 34.0032C161.265 33.9752 161.199 33.933 161.144 33.8794C161.09 33.8257 161.046 33.7617 161.018 33.6912C160.989 33.6206 160.975 33.5451 160.978 33.4693V31.0724C160 32.9656 158.275 34.3377 156.071 34.3377C152.569 34.3377 150.631 31.3677 150.631 28.2239V20.8422C150.632 20.6906 150.695 20.5456 150.804 20.4384C150.914 20.3312 151.062 20.2703 151.218 20.269C151.372 20.2734 151.518 20.3351 151.627 20.4417C151.736 20.5483 151.8 20.6915 151.804 20.8422V28.2239C151.804 30.7076 153.244 33.174 156.071 33.174C160.035 33.174 160.978 29.5439 160.978 25.5317V20.8248C160.979 20.7319 161.003 20.6406 161.048 20.5586C161.093 20.4767 161.157 20.4064 161.235 20.3537C161.314 20.301 161.404 20.2673 161.498 20.2556C161.592 20.2439 161.688 20.2544 161.778 20.2864C161.889 20.3371 161.984 20.418 162.05 20.5196C162.116 20.6212 162.151 20.7391 162.151 20.8595Z" fill="white" fill-opacity="0.5"/>
<path d="M192 26.0012V33.3829C191.996 33.5335 191.932 33.6768 191.823 33.7834C191.714 33.8899 191.568 33.9517 191.413 33.9561C191.336 33.9582 191.259 33.9449 191.186 33.9168C191.114 33.8888 191.049 33.8467 190.994 33.793C190.939 33.7393 190.896 33.6753 190.867 33.6048C190.838 33.5343 190.825 33.4588 190.827 33.3829V26.0012C190.827 23.5174 189.387 21.0858 186.56 21.0858C183.005 21.0858 181.653 24.8027 181.653 27.6859V33.3829C181.649 33.5335 181.586 33.6768 181.477 33.7834C181.368 33.8899 181.221 33.9517 181.067 33.9561C180.989 33.9582 180.912 33.9449 180.84 33.9168C180.768 33.8888 180.702 33.8467 180.647 33.793C180.592 33.7393 180.549 33.6753 180.52 33.6048C180.492 33.5343 180.478 33.4588 180.48 33.3829V26.0012C180.48 23.5174 179.04 21.0858 176.213 21.0858C172.622 21.0858 171.147 23.8474 171.271 27.5296C171.271 27.6165 171.307 27.7728 171.271 27.8249V33.3655C171.271 33.5123 171.217 33.6541 171.119 33.7656C171.022 33.877 170.886 33.9507 170.738 33.9735C170.655 33.9842 170.571 33.9774 170.491 33.9533C170.411 33.9293 170.337 33.8887 170.274 33.8343C170.212 33.7799 170.162 33.7129 170.129 33.638C170.095 33.5631 170.079 33.482 170.08 33.4003V20.8079C170.08 20.6611 170.134 20.5193 170.232 20.4079C170.33 20.2964 170.465 20.2227 170.614 20.2C170.696 20.1892 170.781 20.1961 170.861 20.2201C170.941 20.2441 171.015 20.2847 171.077 20.3391C171.139 20.3936 171.189 20.4605 171.223 20.5354C171.256 20.6103 171.273 20.6914 171.271 20.7732V22.8748C172.285 21.1032 174.098 19.9395 176.213 19.9395C178.613 19.9395 180.48 21.4332 181.245 23.6043C182.222 21.4505 184.125 19.9395 186.56 19.9395C190.027 19.9395 192 22.8748 192 26.0012Z" fill="white" fill-opacity="0.5"/>
<path d="M14.7556 17.3857L0 23.9338L14.7556 32.4619L29.5289 23.9338L14.7556 17.3857Z" fill="white" fill-opacity="0.6"/>
<path d="M0 23.9342L14.7556 32.4623V0L0 23.9342Z" fill="white" fill-opacity="0.55"/>
<path d="M14.7554 0V32.4623L29.5287 23.9342L14.7554 0Z" fill="white" fill-opacity="0.8"/>
<path d="M0 26.6787L14.7556 47.0002V35.1894L0 26.6787Z" fill="white" fill-opacity="0.55"/>
<path d="M14.7554 35.1894V47.0002L29.5287 26.6787L14.7554 35.1894Z" fill="white" fill-opacity="0.8"/>
</g>
<defs>
<clipPath id="clip0_2518_469">
<rect width="192" height="47" fill="white"/>
</clipPath>
</defs>
</svg>
