<svg width="132" height="26" viewBox="0 0 132 26" fill="none" xmlns="http://www.w3.org/2000/svg">
<path d="M13.9248 7.1C13.9248 8.11667 13.6915 9.05 13.2248 9.9C12.7581 10.7333 12.0415 11.4083 11.0748 11.925C10.1081 12.4417 8.90814 12.7 7.4748 12.7H4.8248V19H0.549805V1.45H7.4748C8.8748 1.45 10.0581 1.69167 11.0248 2.175C11.9915 2.65833 12.7165 3.325 13.1998 4.175C13.6831 5.025 13.9248 6 13.9248 7.1ZM7.14981 9.3C7.96647 9.3 8.57481 9.10833 8.9748 8.725C9.3748 8.34167 9.5748 7.8 9.5748 7.1C9.5748 6.4 9.3748 5.85833 8.9748 5.475C8.57481 5.09167 7.96647 4.9 7.14981 4.9H4.8248V9.3H7.14981Z" fill="white"/>
<path d="M21.8254 19.2C20.6087 19.2 19.5254 18.9917 18.5754 18.575C17.6254 18.1583 16.8754 17.5917 16.3254 16.875C15.7754 16.1417 15.4671 15.325 15.4004 14.425H19.6254C19.6754 14.9083 19.9004 15.3 20.3004 15.6C20.7004 15.9 21.1921 16.05 21.7754 16.05C22.3087 16.05 22.7171 15.95 23.0004 15.75C23.3004 15.5333 23.4504 15.2583 23.4504 14.925C23.4504 14.525 23.2421 14.2333 22.8254 14.05C22.4087 13.85 21.7337 13.6333 20.8004 13.4C19.8004 13.1667 18.9671 12.925 18.3004 12.675C17.6337 12.4083 17.0587 12 16.5754 11.45C16.0921 10.8833 15.8504 10.125 15.8504 9.175C15.8504 8.375 16.0671 7.65 16.5004 7C16.9504 6.33333 17.6004 5.80833 18.4504 5.425C19.3171 5.04167 20.3421 4.85 21.5254 4.85C23.2754 4.85 24.6504 5.28333 25.6504 6.15C26.6671 7.01667 27.2504 8.16667 27.4004 9.6H23.4504C23.3837 9.11667 23.1671 8.73333 22.8004 8.45C22.4504 8.16667 21.9837 8.025 21.4004 8.025C20.9004 8.025 20.5171 8.125 20.2504 8.325C19.9837 8.50833 19.8504 8.76667 19.8504 9.1C19.8504 9.5 20.0587 9.8 20.4754 10C20.9087 10.2 21.5754 10.4 22.4754 10.6C23.5087 10.8667 24.3504 11.1333 25.0004 11.4C25.6504 11.65 26.2171 12.0667 26.7004 12.65C27.2004 13.2167 27.4587 13.9833 27.4754 14.95C27.4754 15.7667 27.2421 16.5 26.7754 17.15C26.3254 17.7833 25.6671 18.2833 24.8004 18.65C23.9504 19.0167 22.9587 19.2 21.8254 19.2Z" fill="white"/>
<path d="M44.3408 5.05L35.5908 25.625H30.9908L34.1908 18.525L28.5158 5.05H33.2908L36.5158 13.775L39.7158 5.05H44.3408Z" fill="white"/>
<path d="M45.0367 12.025C45.0367 10.575 45.3284 9.30833 45.9117 8.225C46.5117 7.14167 47.3367 6.30833 48.3867 5.725C49.4534 5.14167 50.6701 4.85 52.0367 4.85C53.7867 4.85 55.2451 5.30833 56.4117 6.225C57.5951 7.14167 58.3701 8.43333 58.7367 10.1H54.1867C53.8034 9.03333 53.0617 8.5 51.9617 8.5C51.1784 8.5 50.5534 8.80833 50.0867 9.425C49.6201 10.025 49.3867 10.8917 49.3867 12.025C49.3867 13.1583 49.6201 14.0333 50.0867 14.65C50.5534 15.25 51.1784 15.55 51.9617 15.55C53.0617 15.55 53.8034 15.0167 54.1867 13.95H58.7367C58.3701 15.5833 57.5951 16.8667 56.4117 17.8C55.2284 18.7333 53.7701 19.2 52.0367 19.2C50.6701 19.2 49.4534 18.9083 48.3867 18.325C47.3367 17.7417 46.5117 16.9083 45.9117 15.825C45.3284 14.7417 45.0367 13.475 45.0367 12.025Z" fill="white"/>
<path d="M69.5984 4.9C71.1984 4.9 72.4818 5.43333 73.4484 6.5C74.4151 7.55 74.8984 9 74.8984 10.85V19H70.6484V11.425C70.6484 10.4917 70.4068 9.76667 69.9234 9.25C69.4401 8.73333 68.7901 8.475 67.9734 8.475C67.1568 8.475 66.5068 8.73333 66.0234 9.25C65.5401 9.76667 65.2984 10.4917 65.2984 11.425V19H61.0234V0.5H65.2984V6.925C65.7318 6.30833 66.3234 5.81667 67.0734 5.45C67.8234 5.08333 68.6651 4.9 69.5984 4.9Z" fill="white"/>
<path d="M84.2191 19.2C82.8525 19.2 81.6191 18.9083 80.5191 18.325C79.4358 17.7417 78.5775 16.9083 77.9441 15.825C77.3275 14.7417 77.0191 13.475 77.0191 12.025C77.0191 10.5917 77.3358 9.33333 77.9691 8.25C78.6025 7.15 79.4691 6.30833 80.5691 5.725C81.6691 5.14167 82.9025 4.85 84.2691 4.85C85.6358 4.85 86.8691 5.14167 87.9691 5.725C89.0691 6.30833 89.9358 7.15 90.5691 8.25C91.2025 9.33333 91.5191 10.5917 91.5191 12.025C91.5191 13.4583 91.1941 14.725 90.5441 15.825C89.9108 16.9083 89.0358 17.7417 87.9191 18.325C86.8191 18.9083 85.5858 19.2 84.2191 19.2ZM84.2191 15.5C85.0358 15.5 85.7275 15.2 86.2941 14.6C86.8775 14 87.1691 13.1417 87.1691 12.025C87.1691 10.9083 86.8858 10.05 86.3191 9.45C85.7691 8.85 85.0858 8.55 84.2691 8.55C83.4358 8.55 82.7441 8.85 82.1941 9.45C81.6441 10.0333 81.3691 10.8917 81.3691 12.025C81.3691 13.1417 81.6358 14 82.1691 14.6C82.7191 15.2 83.4025 15.5 84.2191 15.5Z" fill="white"/>
<path d="M105.475 15.9002H98.9249L97.8749 19.0002H93.3999L99.7499 1.4502H104.7L111.05 19.0002H106.525L105.475 15.9002ZM104.375 12.6002L102.2 6.17519L100.05 12.6002H104.375Z" fill="url(#paint0_linear_2515_460)"/>
<path d="M117.258 7.3752C117.758 6.60853 118.383 6.00853 119.133 5.5752C119.883 5.1252 120.716 4.9002 121.633 4.9002V9.42519H120.458C119.391 9.42519 118.591 9.65853 118.058 10.1252C117.524 10.5752 117.258 11.3752 117.258 12.5252V19.0002H112.983V5.05019H117.258V7.3752Z" fill="url(#paint1_linear_2515_460)"/>
<path d="M131.451 15.3752V19.0002H129.276C127.726 19.0002 126.518 18.6252 125.651 17.8752C124.784 17.1085 124.351 15.8669 124.351 14.1502V8.6002H122.651V5.05019H124.351V1.6502H128.626V5.05019H131.426V8.6002H128.626V14.2002C128.626 14.6169 128.726 14.9169 128.926 15.1002C129.126 15.2835 129.459 15.3752 129.926 15.3752H131.451Z" fill="url(#paint2_linear_2515_460)"/>
<defs>
<linearGradient id="paint0_linear_2515_460" x1="113" y1="3.5" x2="113" y2="29" gradientUnits="userSpaceOnUse">
<stop stop-color="#B75CFF"/>
<stop offset="1" stop-color="#671AE4"/>
</linearGradient>
<linearGradient id="paint1_linear_2515_460" x1="113" y1="3.5" x2="113" y2="29" gradientUnits="userSpaceOnUse">
<stop stop-color="#B75CFF"/>
<stop offset="1" stop-color="#671AE4"/>
</linearGradient>
<linearGradient id="paint2_linear_2515_460" x1="113" y1="3.5" x2="113" y2="29" gradientUnits="userSpaceOnUse">
<stop stop-color="#B75CFF"/>
<stop offset="1" stop-color="#671AE4"/>
</linearGradient>
</defs>
</svg>
