<svg width="347" height="58" viewBox="0 0 347 58" fill="none" xmlns="http://www.w3.org/2000/svg">
<path d="M85.2811 38.6392V28.9852C85.2811 23.9895 81.2404 19.9487 76.1883 19.9487H75.7951C73.8308 19.9487 71.866 20.6221 70.912 21.8009V10.3505C70.912 8.94654 69.8454 8.21777 68.7788 8.21777C67.7122 8.21777 66.646 8.947 66.646 10.3505V45.655C66.646 47.0022 67.7126 47.6756 68.7788 47.6756C69.7332 47.6756 70.6872 47.1139 70.8557 45.9929C71.6412 46.7779 73.2691 47.6756 75.6825 47.6756H76.1879C81.1836 47.6756 85.2811 43.6349 85.2811 38.6392ZM81.0156 38.6392C81.0156 41.2773 78.8828 43.4105 76.1883 43.4105H75.683C73.1574 43.4105 70.9125 41.7264 70.9125 38.9761V28.5361C70.9125 25.9538 73.1579 24.2142 75.683 24.2142H76.1883C78.8828 24.2142 81.0156 26.3475 81.0156 28.9852V38.6392ZM103.187 45.5424C103.187 44.4762 102.513 43.4105 101.054 43.4105C99.3134 43.3538 97.9666 42.007 97.9666 40.2665V10.3505C97.9666 8.94654 96.9004 8.21777 95.8333 8.21777C94.7672 8.21777 93.7006 8.947 93.7006 10.3505V40.2665C93.7006 44.3636 96.9563 47.6756 101.054 47.6756C102.513 47.6756 103.187 46.609 103.187 45.5424ZM127.658 38.6392V28.9852C127.658 23.9895 123.617 19.9487 118.621 19.9487H118.06C113.064 19.9487 109.023 23.9895 109.023 28.9852V38.6392C109.023 43.6349 113.064 47.6756 118.06 47.6756H118.621C123.617 47.6756 127.658 43.6349 127.658 38.6392ZM123.392 38.6392C123.392 41.2773 121.26 43.4105 118.621 43.4105H118.116C115.422 43.4105 113.289 41.2773 113.289 38.6392V28.9852C113.289 26.3475 115.422 24.2142 118.06 24.2142H118.621C121.26 24.2142 123.392 26.3475 123.392 28.9852V38.6392ZM153.533 38.6392C153.533 37.1802 152.467 36.4505 151.4 36.4505C150.39 36.4505 149.323 37.1802 149.267 38.6392C149.155 41.2773 147.134 43.4105 144.496 43.4105H143.991C141.297 43.4105 139.164 41.2773 139.164 38.6392V28.9852C139.164 26.3475 141.297 24.2142 143.935 24.2142H144.496C147.134 24.2142 149.155 26.1785 149.267 29.041C149.323 30.445 150.39 31.1184 151.4 31.1184C152.466 31.1184 153.532 30.3882 153.532 28.9852C153.532 23.9895 149.435 19.9487 144.495 19.9487H143.935C138.995 19.9487 134.898 23.9336 134.898 28.9852V38.6392C134.898 43.6349 138.939 47.6756 143.935 47.6756H144.495C149.492 47.6756 153.533 43.6349 153.533 38.6392ZM180.418 45.5424C180.418 45.2059 180.362 44.8136 180.138 44.4762L172.448 31.0053L179.408 23.5967C179.857 23.1476 180.025 22.6427 180.025 22.1373C180.025 21.0139 179.07 19.9482 177.837 19.9482C177.331 19.9482 176.77 20.1721 176.32 20.6779L165.656 32.0156V10.3505C165.656 8.94654 164.589 8.21777 163.523 8.21777C162.457 8.21777 161.39 8.947 161.39 10.3505V45.5424C161.39 46.9459 162.457 47.6756 163.523 47.6756C164.589 47.6756 165.656 46.9459 165.656 45.5424V38.3013L169.416 34.2605L176.433 46.5522C176.882 47.3392 177.555 47.6756 178.229 47.6756C179.52 47.6756 180.418 46.6649 180.418 45.5424ZM204.665 38.6392C204.665 37.1802 203.598 36.4505 202.532 36.4505C201.522 36.4505 200.454 37.1802 200.399 38.6392C200.286 41.2773 198.266 43.4105 195.628 43.4105H195.122C192.428 43.4105 190.295 41.2773 190.295 38.6392V28.9852C190.295 26.3475 192.428 24.2142 195.067 24.2142H195.628C198.266 24.2142 200.286 26.1785 200.399 29.041C200.454 30.445 201.522 31.1184 202.532 31.1184C203.598 31.1184 204.665 30.3882 204.665 28.9852C204.665 23.9895 200.567 19.9487 195.628 19.9487H195.067C190.127 19.9487 186.03 23.9336 186.03 28.9852V38.6392C186.03 43.6349 190.072 47.6756 195.067 47.6756H195.628C200.624 47.6756 204.665 43.6349 204.665 38.6392ZM231.158 45.5424V28.9852C231.158 23.9895 227.116 19.9487 222.12 19.9487H221.671C219.707 19.9487 217.742 20.6221 216.787 21.6324V10.3505C216.787 8.94654 215.721 8.21777 214.656 8.21777C213.589 8.21777 212.523 8.947 212.523 10.3505V45.5424C212.523 46.9459 213.589 47.6756 214.656 47.6756C215.722 47.6756 216.787 46.9459 216.787 45.5424V28.7045C216.787 25.7853 219.314 24.2142 221.897 24.2142C224.365 24.2142 226.891 25.7299 226.891 28.9852V45.5424C226.891 46.9459 227.958 47.6756 229.024 47.6756C230.091 47.6756 231.158 46.9459 231.158 45.5424ZM259.221 45.4879C259.221 44.5889 258.66 43.6907 257.425 43.4664C256.415 43.2984 255.966 42.6236 255.966 41.6138V28.5915C255.966 23.7647 252.149 19.9482 247.153 19.9482H246.76C243.786 19.9482 240.193 21.127 238.397 25.1682C238.229 25.5047 238.172 25.8412 238.172 26.1785C238.172 27.3573 239.239 28.1428 240.306 28.1428C241.036 28.1428 241.765 27.8064 242.214 27.0199C243.281 25.1678 244.459 24.2138 246.761 24.2138H247.154C249.624 24.2138 251.7 25.4488 251.7 28.7595C251.7 29.0405 251.7 29.4896 251.533 29.7139C250.186 31.6228 237.725 30.0504 237.331 38.9188V39.5922C237.331 44.8132 241.822 47.6752 246.368 47.6752H246.874C249.175 47.6752 251.308 46.8333 252.936 45.4312C253.665 46.4973 254.844 47.3392 256.752 47.6193C256.865 47.6752 257.033 47.6752 257.146 47.6752C258.492 47.6756 259.221 46.609 259.221 45.4879ZM251.7 38.6392C251.7 41.2773 249.511 43.4105 246.873 43.4105H246.368C243.505 43.4105 241.597 41.8949 241.597 39.481V39.0315C241.765 35.1024 247.547 35.3276 251.7 34.2052V38.6392ZM270.222 45.5424V22.0815C270.222 20.6779 269.155 19.9487 268.089 19.9487C267.024 19.9487 265.957 20.6784 265.957 22.0815V45.5424C265.957 46.9459 267.024 47.6756 268.089 47.6756C269.155 47.6756 270.222 46.9459 270.222 45.5424ZM297.837 45.5424V28.9852C297.837 22.8107 293.627 19.9487 288.856 19.9487H288.351C286.386 19.9487 284.534 20.6221 283.524 21.6324C283.3 20.509 282.345 19.9487 281.391 19.9487C280.268 19.9487 279.202 20.7342 279.202 22.0815V45.5424C279.202 46.9459 280.269 47.6756 281.335 47.6756C282.402 47.6756 283.468 46.9459 283.468 45.5424V28.9852C283.468 26.3475 285.657 24.2142 288.294 24.2142H288.8C291.494 24.2142 293.627 26.3475 293.627 28.9852V45.5424C293.627 46.9459 294.694 47.6756 295.76 47.6756C296.827 47.6756 297.837 46.9459 297.837 45.5424ZM319.863 45.5424V22.0815C319.863 20.6779 318.796 19.9487 317.729 19.9487C316.664 19.9487 315.598 20.6784 315.598 22.0815V45.5424C315.598 46.9459 316.664 47.6756 317.729 47.6756C318.797 47.6756 319.863 46.9459 319.863 45.5424ZM346.86 38.6392V28.9852C346.86 23.9895 342.818 19.9487 337.824 19.9487H337.262C332.266 19.9487 328.226 23.9895 328.226 28.9852V38.6392C328.226 43.6349 332.266 47.6756 337.262 47.6756H337.824C342.819 47.6756 346.86 43.6349 346.86 38.6392ZM342.594 38.6392C342.594 41.2773 340.462 43.4105 337.824 43.4105H337.318C334.623 43.4105 332.491 41.2773 332.491 38.6392V28.9852C332.491 26.3475 334.623 24.2142 337.262 24.2142H337.824C340.462 24.2142 342.594 26.3475 342.594 28.9852V38.6392Z" fill="white" fill-opacity="0.5"/>
<path d="M24.3805 26.5771C23.0809 26.5771 22.0239 27.6345 22.0239 28.9338C22.0239 30.233 23.0813 31.2899 24.3805 31.2899C25.6798 31.2899 26.7376 30.233 26.7376 28.9338C26.7376 27.6345 25.6802 26.5771 24.3805 26.5771Z" fill="white" fill-opacity="0.5"/>
<path d="M35.2771 20.0381C33.9774 20.0381 32.9214 21.0955 32.9214 22.3947C32.9214 23.6944 33.9779 24.7509 35.2771 24.7509C36.5763 24.7509 37.6346 23.6939 37.6346 22.3947C37.6351 21.0955 36.5768 20.0381 35.2771 20.0381Z" fill="white" fill-opacity="0.5"/>
<path d="M46.174 13.501C44.8748 13.501 43.8174 14.5579 43.8174 15.8571C43.8174 17.1568 44.8748 18.2151 46.174 18.2151C47.4742 18.2151 48.5306 17.1573 48.5306 15.8571C48.5306 14.5579 47.4742 13.501 46.174 13.501Z" fill="white" fill-opacity="0.5"/>
<path d="M13.4831 6.96191C12.1839 6.96191 11.1265 8.0193 11.1265 9.31899C11.1265 10.6182 12.1839 11.6751 13.4831 11.6751C14.7828 11.6751 15.8402 10.6182 15.8402 9.31899C15.8402 8.0193 14.7832 6.96191 13.4831 6.96191Z" fill="white" fill-opacity="0.5"/>
<path d="M24.3805 0.423828C23.0809 0.423828 22.0239 1.48167 22.0239 2.78091C22.0239 4.0806 23.0813 5.13798 24.3805 5.13798C25.6798 5.13798 26.7376 4.0806 26.7376 2.78091C26.7376 1.48167 25.6802 0.423828 24.3805 0.423828Z" fill="white" fill-opacity="0.5"/>
<path d="M24.3805 13.501C23.0809 13.501 22.0239 14.5579 22.0239 15.8571C22.0239 17.1568 23.0813 18.2151 24.3805 18.2151C25.6798 18.2151 26.7376 17.1573 26.7376 15.8571C26.7376 14.5579 25.6802 13.501 24.3805 13.501Z" fill="white" fill-opacity="0.5"/>
<path d="M35.2771 6.96191C33.9774 6.96191 32.9214 8.0193 32.9214 9.31899C32.9214 10.6182 33.9779 11.6751 35.2771 11.6751C36.5763 11.6751 37.6346 10.6182 37.6346 9.31899C37.6351 8.0193 36.5768 6.96191 35.2771 6.96191Z" fill="white" fill-opacity="0.5"/>
<path d="M35.2771 33.1152C33.9774 33.1152 32.9214 34.1722 32.9214 35.4709C32.9214 36.7706 33.9779 37.8275 35.2771 37.8275C36.5763 37.8275 37.6346 36.7706 37.6346 35.4709C37.6351 34.1722 36.5768 33.1152 35.2771 33.1152Z" fill="white" fill-opacity="0.5"/>
<path d="M46.174 26.5771C44.8748 26.5771 43.8174 27.6345 43.8174 28.9338C43.8174 30.233 44.8748 31.2899 46.174 31.2899C47.4742 31.2899 48.5306 30.233 48.5306 28.9338C48.5306 27.6345 47.4742 26.5771 46.174 26.5771Z" fill="white" fill-opacity="0.5"/>
<path d="M35.2771 46.1904C33.9774 46.1904 32.9214 47.2474 32.9214 48.547C32.9214 49.8463 33.9779 50.9032 35.2771 50.9032C36.5763 50.9032 37.6346 49.8463 37.6346 48.547C37.6351 47.2474 36.5768 46.1904 35.2771 46.1904Z" fill="white" fill-opacity="0.5"/>
<path d="M46.174 39.6523C44.8748 39.6523 43.8174 40.7093 43.8174 42.009C43.8174 43.3082 44.8748 44.3651 46.174 44.3651C47.4742 44.3651 48.5306 43.3082 48.5306 42.009C48.5306 40.7093 47.4742 39.6523 46.174 39.6523Z" fill="white" fill-opacity="0.5"/>
<path d="M24.3805 52.7295C23.0809 52.7295 22.0239 53.7869 22.0239 55.0861C22.0239 56.3849 23.0813 57.4423 24.3805 57.4423C25.6798 57.4423 26.7376 56.3849 26.7376 55.0861C26.7376 53.7869 25.6802 52.7295 24.3805 52.7295Z" fill="white" fill-opacity="0.5"/>
<path d="M24.3805 39.6523C23.0809 39.6523 22.0239 40.7093 22.0239 42.009C22.0239 43.3082 23.0813 44.3651 24.3805 44.3651C25.6798 44.3651 26.7376 43.3082 26.7376 42.009C26.7376 40.7093 25.6802 39.6523 24.3805 39.6523Z" fill="white" fill-opacity="0.5"/>
<path d="M13.4831 20.0381C12.1839 20.0381 11.1265 21.0955 11.1265 22.3947C11.1265 23.6944 12.1839 24.7509 13.4831 24.7509C14.7828 24.7509 15.8402 23.6939 15.8402 22.3947C15.8402 21.0955 14.7832 20.0381 13.4831 20.0381Z" fill="white" fill-opacity="0.5"/>
<path d="M13.4831 46.1904C12.1839 46.1904 11.1265 47.2474 11.1265 48.547C11.1265 49.8463 12.1839 50.9032 13.4831 50.9032C14.7828 50.9032 15.8402 49.8463 15.8402 48.547C15.8402 47.2474 14.7832 46.1904 13.4831 46.1904Z" fill="white" fill-opacity="0.5"/>
<path d="M13.4831 33.1152C12.1839 33.1152 11.1265 34.1722 11.1265 35.4709C11.1265 36.7706 12.1839 37.8275 13.4831 37.8275C14.7828 37.8275 15.8402 36.7706 15.8402 35.4709C15.8402 34.1722 14.7832 33.1152 13.4831 33.1152Z" fill="white" fill-opacity="0.5"/>
<path d="M2.58663 13.501C1.28693 13.501 0.230469 14.5579 0.230469 15.8571C0.230469 17.1568 1.2874 18.2151 2.58663 18.2151C3.88587 18.2151 4.94372 17.1573 4.94372 15.8571C4.94372 14.5579 3.88587 13.501 2.58663 13.501Z" fill="white" fill-opacity="0.5"/>
<path d="M2.58663 39.6533C1.28693 39.6533 0.230469 40.7102 0.230469 42.0099C0.230469 43.3092 1.2874 44.3661 2.58663 44.3661C3.88587 44.3661 4.94372 43.3092 4.94372 42.0099C4.94372 40.7102 3.88587 39.6533 2.58663 39.6533Z" fill="white" fill-opacity="0.5"/>
<path d="M2.58663 26.5771C1.28693 26.5771 0.230469 27.6345 0.230469 28.9338C0.230469 30.233 1.2874 31.2899 2.58663 31.2899C3.88587 31.2899 4.94372 30.233 4.94372 28.9338C4.94372 27.6345 3.88587 26.5771 2.58663 26.5771Z" fill="white" fill-opacity="0.5"/>
<path d="M268.054 8.10059C266.872 8.10059 265.909 9.06197 265.909 10.2444C265.909 11.4269 266.872 12.3887 268.054 12.3887C269.236 12.3887 270.199 11.4269 270.199 10.2444C270.199 9.06197 269.237 8.10059 268.054 8.10059Z" fill="white" fill-opacity="0.5"/>
<path d="M317.712 8.10059C316.529 8.10059 315.567 9.06197 315.567 10.2444C315.567 11.4269 316.53 12.3887 317.712 12.3887C318.895 12.3887 319.856 11.4269 319.856 10.2444C319.856 9.06197 318.895 8.10059 317.712 8.10059Z" fill="white" fill-opacity="0.5"/>
<path d="M306.462 43.5635C305.287 43.5635 304.329 44.5198 304.329 45.6958C304.329 46.8718 305.287 47.829 306.462 47.829C307.639 47.829 308.595 46.8718 308.595 45.6958C308.595 44.5198 307.639 43.5635 306.462 43.5635Z" fill="white" fill-opacity="0.5"/>
</svg>
