<svg width="20" height="20" viewBox="0 0 20 20" fill="none" xmlns="http://www.w3.org/2000/svg">
<path d="M7.84314 0C3.51883 0 0 3.51883 0 7.84314C0 12.1675 3.51883 15.6863 7.84314 15.6863C9.40164 15.6863 10.8519 15.2242 12.0742 14.4371L17.1477 19.5106C17.8002 20.1631 18.8584 20.1631 19.5106 19.5106C20.1631 18.858 20.1631 17.8002 19.5106 17.1477L14.4371 12.0742C15.2242 10.8519 15.6863 9.40164 15.6863 7.84314C15.6863 3.51883 12.1675 0 7.84314 0ZM7.84314 3.13726C10.4377 3.13726 12.549 5.24863 12.549 7.84314C12.549 10.4377 10.4377 12.549 7.84314 12.549C5.24863 12.549 3.13726 10.4377 3.13726 7.84314C3.13726 5.24863 5.24863 3.13726 7.84314 3.13726Z" fill="white"/>
</svg>
