<svg width="21" height="21" viewBox="0 0 21 21" fill="none" xmlns="http://www.w3.org/2000/svg">
<path d="M8.62098 0.777344C4.29666 0.777344 0.777832 4.29617 0.777832 8.62049C0.777832 12.9448 4.29666 16.4636 8.62098 16.4636C10.1795 16.4636 11.6298 16.0015 12.852 15.2144L17.9255 20.2879C18.5781 20.9405 19.6363 20.9405 20.2884 20.2879C20.941 19.6354 20.941 18.5776 20.2884 17.925L15.2149 12.8515C16.002 11.6293 16.4641 10.179 16.4641 8.62049C16.4641 4.29617 12.9453 0.777344 8.62098 0.777344ZM8.62098 3.9146C11.2155 3.9146 13.3269 6.02598 13.3269 8.62049C13.3269 11.215 11.2155 13.3264 8.62098 13.3264C6.02646 13.3264 3.91509 11.215 3.91509 8.62049C3.91509 6.02598 6.02646 3.9146 8.62098 3.9146Z" fill="white" fill-opacity="0.5"/>
</svg>
